<svg xmlns="http://www.w3.org/2000/svg" viewBox="0 0 35.43 35.44"><defs><style>.cls-1{fill:none;}.cls-2,.cls-3{fill:#414042;stroke:#dba24f;stroke-miterlimit:10;}.cls-2{stroke-width:0.2px;}.cls-3{stroke-width:0.6px;}</style></defs><title>icon_3</title><g id="Layer_2" data-name="Layer 2"><g id="Layer_1-2" data-name="Layer 1"><rect class="cls-1" width="35.43" height="35.44"/><path class="cls-2" d="M31.71,24.08,30.57,29.4H23.7V6.66l3.07-.46V4.65H15.23V6.2l3.07.38V19.26L7.68,4.65H1.9V6.2l2.74.34.1.14V29.31l-3.33.48v1.54h9.26V29.79l-4-.52V9.3L18.3,25.12v4.23l-3.84.44v1.54H33.64L34,24.08ZM19.86,6.78h2.28V24.55l-2.28-3.14Zm0,22.43v-2l1.59,2.16H19.86Z"/><polygon class="cls-3" points="34.33 2.67 0.69 2.67 0.69 2.67 34.33 2.67 34.33 2.67"/><polygon class="cls-3" points="34.46 33.32 0.83 33.32 0.83 33.32 34.46 33.32 34.46 33.32"/></g></g></svg>